<?xml version="1.0" standalone="no"?>
<!DOCTYPE svg PUBLIC "-//W3C//DTD SVG 20010904//EN"
 "http://www.w3.org/TR/2001/REC-SVG-20010904/DTD/svg10.dtd">
<svg version="1.0" xmlns="http://www.w3.org/2000/svg"
 width="500.000000pt" height="500.000000pt" viewBox="0 0 500.000000 500.000000"
 preserveAspectRatio="xMidYMid meet">
<metadata>
Created by potrace 1.14, written by Peter Selinger 2001-2017
</metadata>
<g transform="translate(0.000000,500.000000) scale(0.100000,-0.100000)"
fill="#000000" stroke="none">
<path d="M3322 4701 c-7 -4 -43 -7 -80 -6 -37 1 -71 -1 -77 -4 -5 -3 -22 -6
-37 -7 -16 -1 -29 -3 -30 -4 -2 -2 -23 -4 -48 -5 -25 -2 -58 -6 -75 -9 -16 -3
-86 -15 -155 -26 -69 -11 -141 -24 -160 -30 -34 -9 -85 -20 -125 -25 -11 -2
-20 -4 -20 -5 0 -1 -8 -3 -17 -5 -9 -2 -40 -8 -68 -14 -28 -6 -55 -9 -60 -6
-5 3 -10 1 -12 -4 -1 -5 -16 -11 -33 -14 -16 -3 -50 -10 -75 -18 -25 -7 -51
-12 -57 -10 -7 1 -13 -2 -13 -6 0 -5 -10 -10 -22 -11 -28 -3 -48 -7 -68 -15
-8 -3 -35 -10 -60 -16 -25 -7 -52 -14 -60 -16 -8 -3 -35 -10 -60 -17 -25 -7
-47 -15 -50 -18 -5 -5 -15 -8 -50 -15 -8 -2 -16 -4 -17 -5 -2 -2 -7 -4 -13 -5
-5 -1 -11 -3 -12 -5 -2 -1 -11 -3 -20 -6 -25 -6 -41 -10 -58 -16 -48 -17 -157
-48 -166 -48 -6 0 -16 -6 -22 -13 -6 -7 -23 -14 -39 -15 -15 -1 -29 -7 -31
-12 -2 -6 -8 -10 -13 -10 -6 0 -7 6 -3 13 5 7 1 7 -10 -2 -15 -13 -98 -46
-132 -54 -7 -2 -20 -9 -30 -17 -9 -8 -18 -14 -18 -12 -1 2 -10 0 -21 -3 -53
-18 -87 -32 -165 -69 -47 -22 -87 -41 -90 -41 -12 -2 -76 -39 -81 -47 -3 -5
-10 -10 -15 -10 -10 -1 -43 -20 -86 -49 -15 -11 -32 -19 -38 -19 -5 0 -10 -4
-10 -10 0 -5 -5 -10 -11 -10 -7 0 -22 -11 -35 -26 -13 -14 -24 -22 -24 -18 0
4 -9 -3 -20 -16 -11 -13 -20 -20 -20 -16 0 4 -20 -13 -45 -37 -25 -25 -45 -43
-45 -40 0 8 -118 -118 -124 -133 -3 -8 -9 -14 -14 -14 -5 0 -15 -13 -22 -30
-7 -16 -16 -30 -21 -30 -5 0 -9 -7 -9 -15 0 -9 -7 -27 -16 -40 -9 -14 -13 -25
-10 -25 4 0 1 -10 -5 -22 -13 -24 -14 -141 -2 -161 4 -7 8 -16 9 -22 4 -24 9
-40 14 -45 3 -3 18 -30 32 -60 38 -77 60 -111 83 -133 11 -10 13 -15 5 -11
-11 5 -10 2 3 -12 33 -35 67 -79 67 -86 0 -4 6 -13 13 -20 7 -7 26 -31 42 -53
17 -22 38 -49 48 -59 9 -11 17 -23 17 -28 0 -4 15 -23 34 -42 18 -20 32 -37
30 -38 -2 -2 10 -19 26 -38 17 -19 30 -38 30 -41 0 -3 9 -17 21 -30 11 -13 28
-33 37 -44 10 -11 28 -36 42 -55 13 -19 27 -37 30 -40 9 -8 103 -125 125 -155
11 -16 25 -33 30 -39 6 -6 33 -40 60 -75 28 -35 60 -74 72 -87 13 -13 23 -26
23 -29 0 -4 23 -33 65 -79 6 -6 30 -36 55 -66 25 -30 47 -57 50 -60 3 -3 27
-32 55 -65 27 -33 60 -71 72 -84 12 -14 19 -29 16 -34 -4 -6 -1 -7 6 -3 8 5
14 0 18 -13 3 -11 9 -18 14 -15 5 3 9 1 9 -5 0 -6 15 -25 33 -44 31 -32 77
-84 162 -182 22 -26 59 -67 83 -92 23 -25 42 -48 42 -50 0 -3 18 -22 40 -43
22 -21 40 -43 40 -49 0 -7 5 -9 10 -6 6 3 10 2 10 -4 0 -11 397 -409 517 -519
123 -111 144 -130 207 -185 33 -29 67 -59 75 -67 9 -9 48 -31 86 -50 39 -19
73 -39 76 -43 3 -5 8 -8 10 -6 2 1 20 -3 39 -9 90 -29 228 -39 290 -21 25 7
52 14 60 15 26 5 120 56 120 66 0 5 4 7 9 4 12 -8 153 133 145 145 -3 5 0 9 6
9 6 0 15 10 20 23 6 12 14 29 20 37 16 25 54 115 52 123 -1 4 2 7 7 7 5 0 8 8
6 18 -1 9 3 24 11 32 7 8 12 17 12 20 -2 8 35 104 45 118 5 6 7 12 4 12 -3 0
0 12 8 27 8 15 12 30 10 34 -3 4 2 12 10 19 8 7 15 18 15 25 0 12 27 85 56
152 8 17 14 38 14 47 0 9 4 16 8 16 5 0 9 6 10 13 1 19 32 101 43 112 5 5 9
15 9 22 0 8 7 30 17 51 9 20 16 40 15 44 -1 4 10 32 23 63 14 30 25 62 25 70
0 8 5 15 10 15 6 0 10 9 10 19 0 11 4 22 10 26 5 3 7 12 3 20 -3 8 0 15 7 15
6 0 8 5 5 10 -3 6 -3 16 2 23 4 6 8 14 9 17 2 11 27 74 46 115 5 12 10 27 12
35 2 8 6 22 9 30 5 14 30 89 32 100 1 3 4 12 8 20 28 73 45 129 40 134 -4 3
-1 6 5 6 6 0 9 7 6 15 -4 8 -2 15 3 15 8 0 12 15 15 58 1 6 5 12 10 12 5 0 6
5 3 10 -4 6 -3 16 2 23 12 16 24 55 59 182 6 20 15 61 20 85 3 13 8 27 12 30
4 3 7 16 7 30 0 14 6 36 12 50 7 14 13 33 13 42 0 9 5 20 10 23 6 4 8 10 6 14
-5 7 8 67 21 101 3 8 7 24 9 35 7 40 10 50 16 60 3 6 9 30 13 55 4 25 10 50
13 55 4 6 7 15 8 20 5 27 14 66 27 123 9 34 16 65 16 67 9 63 15 84 20 81 3
-2 6 15 5 37 -1 23 2 47 5 52 3 6 6 15 7 20 37 196 42 243 50 436 7 162 -10
301 -47 372 -10 20 -15 37 -11 37 4 0 2 4 -3 8 -6 4 -22 23 -35 42 -28 43
-130 140 -146 140 -3 0 -18 9 -34 20 -15 11 -30 17 -34 13 -3 -3 -6 -1 -6 5 0
7 -3 11 -7 10 -5 -1 -25 6 -47 15 -21 9 -44 17 -51 17 -6 0 -15 3 -19 8 -4 4
-11 7 -14 8 -4 0 -27 6 -52 13 -54 16 -73 20 -125 27 -22 4 -42 9 -45 13 -3 4
-17 6 -32 6 -16 -1 -28 2 -28 5 0 4 -16 5 -36 3 -21 -1 -42 1 -48 5 -12 7 -13
7 -146 18 -133 10 -345 13 -358 5z"/>
</g>
</svg>
